<?xml version="1.0" standalone="no"?><!DOCTYPE svg PUBLIC "-//W3C//DTD SVG 1.1//EN" "http://www.w3.org/Graphics/SVG/1.1/DTD/svg11.dtd"><svg t="1592380634717" class="icon" viewBox="0 0 1024 1024" version="1.1" xmlns="http://www.w3.org/2000/svg" p-id="8225" xmlns:xlink="http://www.w3.org/1999/xlink" width="200" height="200"><defs><style type="text/css"></style></defs><path d="M257.147479 10.876102c21.802095-9.803459 46.87201-13.22095 70.170816-7.171741 6.997125 1.658855 13.532765 4.66475 20.19313 7.296467 43.778806 17.523995 82.531157 47.246188 110.993618 84.838587 23.760292 31.069233 40.523459 67.152448 50.763459 104.832156 1.721218-0.012473 3.442436-0.024945 5.188599-0.024945 8.768234-32.279074 22.276054-63.398197 40.984945-91.187138 19.569501-29.260706 44.876395-54.729744 74.286773-74.099683 19.195323-12.759464 40.211644-22.612814 61.901486-30.308404 30.308404-9.603898 64.009354-2.606772 90.476199 14.156394 37.991523 23.984799 63.248526 66.940414 65.780463 111.804337 1.371985 24.271669-4.128429 49.329111-17.623776 69.75922 37.754543-0.112253 75.509086 0 113.26363-0.04989 9.766041-0.112253 19.557028 1.621437 28.637077 5.238489 25.76838 9.940658 44.664361 35.147771 46.984263 62.662315-1.521657 5.57525-0.598685 11.362533-0.735883 17.050036 0 58.184653 0 116.369306-0.024945 174.553959 0.062363 4.128429-0.573739 8.394056 0.785773 12.397758-1.097588 21.44039-12.447649 41.92039-29.584994 54.75469-9.61637 7.321413-21.078685 12.048526-32.965067 14.143922-0.062363 63.647649 0.062363 127.282826-0.062363 190.930475l-0.174616-1.384458c-0.910499-13.869525 0.848136-27.888721-0.424068-41.795664 0.748356-18.272351 0.324287-36.607065 0.286869-54.891888 0.124726-30.782363 0.212034-61.564726-0.04989-92.334616-16.451352 0.810719-32.990012 1.022753-49.478782 0.399123-105.642875-0.087308-211.298222-0.099781-316.941096 0.012473 0 143.771596-0.037418 287.543191 0.012472 431.314786 97.560633-0.012473 195.133739 0.04989 292.694373-0.037417 12.921608-0.024945 24.334032-11.624458 24.196833-24.533594 0.099781-51.549233 0-103.098465 0.037418-154.647698 4.814421-0.33676 9.790987-1.409403 14.418319 0.536322 5.425579-2.544409 10.876102 0.698465 16.476297 0.162144 6.323605-0.38665 12.672156-0.174616 18.995761 0.212034-0.012473 51.224945 0.024945 102.437418-0.012472 153.662363-0.024945 16.15201-5.462996 32.241657-15.316346 45.051011-12.796882 16.975201-33.089793 27.926139-54.293203 29.323069-4.340463-1.272205-8.855542-0.735883-13.295786-0.785773-92.309671-0.012473-184.60687 0.024945-276.916541-0.012473-23.286334 0.910499-46.597613 0.311815-69.883946 0.461486-27.427235 0.037418-54.866943 0-82.294178 0.037418-24.895298-0.96039-49.828015-0.299342-74.735786-0.473959-74.835566-0.037418-149.671133 0.012473-224.519171-0.012472-4.253155-0.012473-8.531255-0.249452-12.759465 0.324287-13.744799-0.548794-27.053057-6.223825-38.053885-14.331011-18.55922-13.757272-30.058952-36.482339-29.921754-59.606528-0.012473-136.088477-0.012473-272.176955 0-408.265433-17.386797-3.841559-33.339245-13.906943-44.015786-28.188063-9.154884-12.048526-14.493155-26.940804-15.029476-42.070061 0.062363-65.705627 0.112253-131.411255-0.012472-197.116882 0.399123-21.240828 10.57676-41.995225 26.978221-55.4781 13.295786-11.150499 30.595274-17.374324 47.944653-17.26207 37.629817 0.024945 75.259635-0.024945 112.889452 0.024945-9.055104-13.857052-14.605408-29.871864-16.713277-46.260853-7.570865-58.434105 26.828551-119.462509 80.498125-143.609452m-10.289891 69.559659c-14.617881 17.960536-22.974519 41.409013-21.15352 64.645457 1.209842 14.580463 7.121851 29.472741 18.783727 38.789769 7.496029 5.812229 14.717661 12.135834 22.999464 16.800584 63.211108 0.112253 126.434689 0.062363 189.645798-0.012472-8.60609-27.102948-21.627479-52.896273-38.964385-75.484142-23.785238-31.144068-56.338709-55.465627-92.983191-69.347624-8.905432-4.365408-19.020706-6.24877-28.886529-4.839367-19.656809 2.519464-37.081023 14.343484-49.441364 29.447795m452.655396-25.020024c-29.697247 11.225335-56.937393 29.0362-78.814324 52.073082-25.119805 26.217393-43.080341 58.720974-54.23084 93.145334 63.273471 0.137199 126.559415 0.137199 189.845359 0.024946 8.244385-4.777004 15.540853-11.038246 23.024409-16.900366 12.684629-10.264945 18.484385-26.915859 18.883508-42.830889 0.760828-35.235079-20.579781-70.445213-52.896273-84.925895-14.306066-6.398441-31.505773-7.770426-45.811839-0.586212M55.365847 275.656809c-0.037418 63.585286 0.012473 127.183045-0.012473 190.780804-0.174616 6.111571 1.796054 12.310451 5.749866 17.012618 2.669135 2.98095 5.949428 6.423386 10.302363 6.161462l0.236979 1.471766c4.402826 1.658855 9.192302 1.621437 13.832107 1.571547 116.855737-0.099781 233.711474 0.149671 350.554739-0.124726 0.04989-0.72341 0.162144-2.170231 0.212034-2.893642 0.099781-79.674933 0-159.349866 0.04989-239.024799-118.614373 0.012473-237.228745 0-355.855591 0.012473-13.395566-0.424068-25.43162 11.636931-25.069914 25.032497m430.765992-24.882826c0.149671 79.600097-0.087308 159.212667 0.112254 238.825237l-0.199562 2.856225c17.773447 0.349233 35.584312 0.299342 53.370231 0.04989 0.124726-0.72341 0.38665-2.182704 0.523849-2.918587-0.124726-79.625043-0.037418-159.250085-0.04989-238.875128-17.910646 0-35.833764-0.099781-53.756882 0.062363m103.609842-0.037418c0.124726 79.625043-0.099781 159.237613 0.112253 238.862655-0.074836 0.710938-0.212034 2.120341-0.274397 2.831279 52.721657 0.548794 105.480731 0.012473 158.227333 0.224507 65.655737-0.037418 131.311474 0.037418 196.979683-0.04989 2.943532-0.511376 7.59581 0.187089 9.042631-2.993423 1.421876-0.062363 2.993423-0.087308 4.203264-1.022753 7.022071-4.440244 11.549622-12.559903 11.48726-20.891595 0.012473-64.009354 0-128.031181 0-192.053009 0.424068-13.283313-11.449842-25.269476-24.720682-25.020024-118.352448 0.062363-236.717369-0.162144-355.057345 0.112253M65.032107 541.273179c-0.33676 28.662022-0.162144 57.348989-0.212034 86.023484 0.199562 17.686139-0.33676 35.434641 0.461486 53.108307-0.698465 11.574568-0.661048 23.46095 0.199562 35.060462l-0.461486 0.523849c-0.38665 7.633228-0.012473 15.303873 0.112253 22.949574-0.324287 6.124044-0.187089 12.26056 0.28687 18.372132-0.523849 8.356638-0.124726 16.813057 0.411595 25.169695-0.473959 5.550305-0.012473 11.138027 0.062363 16.713277 2.319903 1.421876 4.95162 0.685993 7.483557 0.748355 5.712448 0.935445 11.512205 0.361705 17.26207 0.212034 1.384458 0.374178 2.656663 1.035225 3.978758 1.608965 0.062363-0.498904 0.174616-1.509184 0.224507-2.008088 2.25754 0.773301 4.602387 0.735883 6.884872 0.049891 0.947917 0.511376 1.895834 1.035225 2.843751 1.571547 3.217929-0.997808 6.560585-1.471766 9.928186-1.721218 0 49.85296-0.024945 99.70592 0.012472 149.558879-0.162144 12.996443 11.437369 24.620901 24.433813 24.533593 99.0324 0.112253 198.077272-0.087308 297.122143 0.099781 0.361705-2.432156 0.212034-4.889257 0.212034-7.321413 0.012473-141.376857 0-282.753715 0.012473-424.130572-107.276784 0.074836-214.553569-0.149671-321.830353 0.09978-16.476297-0.074836-33.02743 0.997808-49.428892-1.222314m421.112205 1.259732c0.037418 143.509671 0.074836 287.019342-0.024945 430.529013 17.910646 0.399123 35.846236 0.04989 53.769354 0.174617-0.012473-143.621924-0.024945-287.243849 0-430.865774-17.910646 0.137199-35.833764-0.174616-53.744409 0.162144z" p-id="8226" fill="#d81e06"></path><path d="M1019.148161 268.622266l0.486431 1.147478V473.833861l-0.461486-1.209842c-1.359513-4.003703-0.72341-8.26933-0.785773-12.397758 0.024945-58.184653 0.024945-116.369306 0.024945-174.553959 0.137199-5.687503-0.785773-11.474787 0.735883-17.050036z" p-id="8227" fill="#d81e06"></path><path d="M4.365408 272.289208l1.184897 1.172424c0.124726 65.705627 0.074836 131.411255 0.012472 197.116882l-1.197369-0.648575V272.289208z" p-id="8228" fill="#d81e06"></path><path d="M71.405603 489.611693c121.607795 0 243.228063-0.04989 364.835859 0.024945-0.04989 0.72341-0.162144 2.170231-0.212034 2.893642-116.843264 0.274397-233.699001 0.024945-350.554739 0.124726-4.639805 0.04989-9.429281 0.087308-13.832107-1.571547l-0.236979-1.471766zM486.244093 489.59922c17.898173 0 35.796346 0.012473 53.694518-0.012472-0.137199 0.735883-0.399123 2.195177-0.523849 2.918587-17.78592 0.249452-35.596784 0.299342-53.370231-0.04989l0.199562-2.856225zM589.853934 489.59922c121.320926 0.012473 242.641851-0.012473 363.97525 0.012473-1.446821 3.180512-6.099099 2.482046-9.042631 2.993423-65.66821 0.087308-131.323946 0.012473-196.979683 0.04989-52.746602-0.212034-105.505676 0.324287-158.227333-0.224507 0.062363-0.710938 0.199562-2.120341 0.274397-2.831279z" p-id="8229" fill="#d81e06"></path><path d="M65.032107 541.273179c16.401462 2.220122 32.952594 1.147479 49.428892 1.222314 0.062363 42.519074 0.012473 85.025676 0.037418 127.532278-6.348551 0.249452-12.734519 0.873082-19.058125 0-9.005213-0.910499-18.022899 0.04989-27.040584 0.149671-0.922972 3.442436-1.771108 6.909817-3.118149 10.227528-0.798246-17.673666-0.261924-35.422168-0.461486-53.108307 0.04989-28.674495-0.124726-57.361462 0.212034-86.023484z" p-id="8230" fill="#d81e06"></path><path d="M906.720195 542.445603c16.48877 0.62363 33.02743 0.411596 49.478782-0.399123 0.261924 30.76989 0.174616 61.552253 0.04989 92.334616-2.5943 5.67503-0.523849 12.060999-1.808526 18.022899-1.035225-2.369793-1.147479-4.964093-1.409403-7.471084-2.294957-0.236979-4.477661 0.311815-6.460804 1.421876-1.110061-0.661048-2.195177-1.322095-3.280292-1.958197-8.21944 2.394738-17.44916-2.943532-25.04497 2.669135-0.149671-0.486431-0.473959-1.459294-0.62363-1.945725-3.816614-0.124726-8.019878 0.33676-10.91352-2.656663 0.024945-33.339245 0.012473-66.67849 0.012473-100.017734z" p-id="8231" fill="#d81e06"></path><path d="M954.440341 652.403995c1.284677-5.9619-0.785773-12.347868 1.808526-18.022899 0.037418 18.284823 0.461486 36.619537-0.286869 54.891888-0.885554 3.454909-1.371985 6.984653-1.521657 10.551815-0.486431-2.120341-1.01028-4.22821-1.521656-6.323605-1.958197 0.424068-3.854032 1.072643-5.675031 1.883361-1.222314-0.449013-2.444629-0.898027-3.641997-1.334567-3.043313 1.858417-6.074153-0.62363-9.217248-0.461486-3.018368-0.199562-5.612667 1.471766-8.344165 2.419683-2.057978-0.074836-3.928867-1.022753-5.837175-1.621437-4.303045-1.845944-8.992741 0.012473-13.482874-0.611157 0.012473-17.099927 0-34.212326-0.012473-51.312254 2.893642 2.993423 7.096906 2.531937 10.91352 2.656663 0.149671 0.486431 0.473959 1.459294 0.62363 1.945725 7.59581-5.612667 16.82553-0.274397 25.04497-2.669135 1.085116 0.636102 2.170231 1.29715 3.280292 1.958197 1.983143-1.110061 4.165847-1.658855 6.460804-1.421876 0.261924 2.506991 0.374178 5.101291 1.409403 7.471084z" p-id="8232" fill="#d81e06"></path><path d="M68.399708 670.177442c9.017686-0.099781 18.035371-1.060171 27.040584-0.149671 6.323605 0.873082 12.709574 0.249452 19.058125 0 0 12.821827-0.024945 25.656127 0 38.477954-8.26933 4.56497-17.860755 1.459294-26.716298 1.272204-6.24877 1.584019-12.746991 0.636102-19.095542 0.449014-0.685993 1.958197-1.559074 3.878977-3.205456 5.238489-0.860609-11.599513-0.898027-23.485895-0.199562-35.060462 1.34704-3.31771 2.195177-6.785091 3.118149-10.227528z" p-id="8233" fill="#d81e06"></path><path d="M954.440341 699.824799c0.149671-3.567162 0.636102-7.096906 1.521657-10.551815 1.272205 13.906943-0.486431 27.926139 0.424068 41.795664-0.710938 0.449013-1.396931 0.860609-2.057978 1.247259-3.704361-1.983143-7.807844-0.112253-11.724239-0.72341-5.862119-0.710938-11.786602-0.860609-17.648721-0.261925-6.061681 0.67352-12.16078-0.087308-18.234933-0.074835 0.012473-12.49754-0.024945-24.982607 0-37.480146 4.490134 0.62363 9.179829-1.234787 13.482874 0.611157 1.908307 0.598685 3.779196 1.546602 5.837175 1.621437 2.731498-0.947917 5.325798-2.619245 8.344165-2.419683 3.143094-0.162144 6.173934 2.319903 9.217248 0.461486 1.197369 0.436541 2.419683 0.885554 3.641997 1.334567 1.820999-0.810719 3.716833-1.459294 5.675031-1.883361 0.511376 2.095396 1.035225 4.203264 1.521656 6.323605z" p-id="8234" fill="#d81e06"></path><path d="M87.782119 709.777929c8.855542 0.187089 18.446967 3.292765 26.716298-1.272204-0.012473 9.554007-0.012473 19.120487-0.012473 28.674494-3.280292 0.523849-6.610475 0.947917-9.940658 0.710938-10.651596-0.860609-21.340609 0.548794-31.992204-0.38665-2.581827-0.349233-4.90173 1.097588-7.421194 1.434348-0.124726-7.6457-0.498904-15.316346-0.112253-22.949574l0.461486-0.523849c1.646382-1.359513 2.519464-3.280292 3.205456-5.238489 6.348551 0.187089 12.846772 1.135006 19.095542-0.449014z" p-id="8235" fill="#d81e06"></path><path d="M906.720195 731.255737c6.074153-0.012473 12.173252 0.748356 18.234933 0.074835 5.862119-0.598685 11.786602-0.449013 17.648721 0.261925 3.916395 0.611157 8.019878-1.259732 11.724239 0.72341 0.661048-0.38665 1.34704-0.798246 2.057978-1.247259l0.174616 1.384458c0.112253 11.848965 0 23.697929 0.04989 35.559367-4.340463-0.349233-8.5562 1.29715-12.871717 0.324287-4.103484 0.798246-8.144604-2.282485-11.998636 0.024945-3.766724-1.958197-7.795371 1.421876-11.58704-0.212034-2.30743-1.159951-4.789476-0.62363-7.047016 0.28687-0.636102-0.236979-1.259732-0.473959-1.870889-0.698465-1.484239 0.473959-2.993423 0.873082-4.502607 1.172423-0.012473-12.54743-0.024945-25.09486-0.012472-37.654762z" p-id="8236" fill="#d81e06"></path><path d="M65.131888 738.938855c2.519464-0.33676 4.839367-1.783581 7.421194-1.434348 10.651596 0.935445 21.340609-0.473959 31.992204 0.38665 3.330183 0.236979 6.660365-0.187089 9.940658-0.710938 0.012473 5.687503 0 11.387479 0 17.074982-5.57525-1.646382-10.938465 2.35732-16.438879 0.212034-8.493837-0.511376-17.050037-0.012473-25.568819-0.224507-2.631717 0.162144-4.789476 1.908307-7.059488 3.068259-0.473959-6.111571-0.611157-12.248088-0.28687-18.372132z" p-id="8237" fill="#d81e06"></path><path d="M72.478246 754.242728c8.518782 0.212034 17.074982-0.28687 25.568819 0.224507 5.500414 2.145286 10.86363-1.858417 16.438879-0.212034 0.012473 8.843069 0 17.686139 0 26.529208-4.515079 0.947917-9.005213 0.361705-13.196005-1.446821-4.440244 2.619245-9.51659 0.62363-14.306066 1.496712-0.561267-0.598685-1.122533-1.172424-1.6838-1.746164-2.394738 0.910499-4.889257 1.571547-7.333885 2.369793-2.868697-2.881169-7.321413-2.220122-11.025774-2.057978-0.38665 1.01028-0.760828 2.033033-1.110061 3.080731-0.536322-8.356638-0.935445-16.813057-0.411595-25.169695 2.270012-1.159951 4.427771-2.906114 7.059488-3.068259z" p-id="8238" fill="#d81e06"></path><path d="M906.732667 768.910499c1.509184-0.299342 3.018368-0.698465 4.502607-1.172423 0.611157 0.224507 1.234787 0.461486 1.870889 0.698465 2.25754-0.910499 4.739586-1.446821 7.047016-0.28687 3.791669 1.63391 7.820317-1.746163 11.58704 0.212034 3.854032-2.30743 7.895152 0.773301 11.998636-0.024945 4.315518 0.972862 8.531255-0.67352 12.871717-0.324287 0 9.142412-0.012473 18.297296 0 27.45218-6.323605-0.38665-12.672156-0.598685-18.995761-0.212034-5.600195 0.536322-11.050719-2.706553-16.476297-0.162144-4.627333-1.945725-9.603898-0.873082-14.418319-0.536322 0-8.543727-0.012473-17.099927 0.012472-25.643654z" p-id="8239" fill="#d81e06"></path><path d="M66.940414 779.399951c3.704361-0.162144 8.157077-0.823191 11.025774 2.057978 2.444629-0.798246 4.939147-1.459294 7.333885-2.369793 0.561267 0.573739 1.122533 1.147479 1.6838 1.746164 4.789476-0.873082 9.865822 1.122533 14.306066-1.496712 4.190792 1.808526 8.680926 2.394738 13.196005 1.446821 0 6.286188 0 12.572375 0.012473 18.871036-3.3676 0.249452-6.710256 0.72341-9.928186 1.721218-0.947917-0.536322-1.895834-1.060171-2.843751-1.571547-2.282485 0.685993-4.627333 0.72341-6.884872-0.049891-0.04989 0.498904-0.162144 1.509184-0.224507 2.008088-1.322095-0.573739-2.5943-1.234787-3.978758-1.608965-5.749866 0.149671-11.549622 0.72341-17.26207-0.212034-2.531937-0.062363-5.163654 0.67352-7.483557-0.748355-0.074836-5.57525-0.536322-11.162972-0.062363-16.713277 0.349233-1.047698 0.72341-2.070451 1.110061-3.080731z" p-id="8240" fill="#d81e06"></path><path d="M132.583678 1023.03961c4.22821-0.573739 8.506309-0.33676 12.759465-0.324287 74.848039 0.024945 149.683605-0.024945 224.519171 0.012472 24.907771 0.174616 49.840487-0.486431 74.735786 0.473959 27.427235-0.037418 54.866943 0 82.294178-0.037418 23.286334-0.149671 46.597613 0.449013 69.883946-0.461486 92.309671 0.037418 184.60687 0 276.916541 0.012473 4.440244 0.04989 8.955323-0.486431 13.295786 0.785773l-1.135007 0.498904H132.284336l0.299342-0.96039z" p-id="8241" fill="#d81e06"></path></svg>