<?xml version="1.0" standalone="no"?><!DOCTYPE svg PUBLIC "-//W3C//DTD SVG 1.1//EN" "http://www.w3.org/Graphics/SVG/1.1/DTD/svg11.dtd"><svg t="1592380720540" class="icon" viewBox="0 0 1024 1024" version="1.1" xmlns="http://www.w3.org/2000/svg" p-id="11048" xmlns:xlink="http://www.w3.org/1999/xlink" width="200" height="200"><defs><style type="text/css"></style></defs><path d="M185.913 1001.244c-21.049 0-42.44-5.916-62.009-18.204a15.537 15.537 0 0 1-2.39-1.707l-33.45-26.396c-1.024-0.797-1.934-1.593-2.73-2.503-18.546-19.57-30.038-43.236-32.996-68.38-3.072-26.17 3.072-52.225 17.18-73.501 0.342-0.569 0.797-1.024 1.138-1.593l265.785-339.058c-12.402-28.558-20.48-58.026-24.007-87.836-5.234-43.918-1.593-87.495 10.695-129.82 11.833-40.733 31.289-78.394 57.799-111.958 26.396-33.564 58.482-61.212 95.346-82.261 38.23-21.846 79.758-35.613 123.562-40.733C686.65 7.054 772.437 31.29 841.5 85.788c33.565 26.397 61.213 58.482 82.262 95.346 21.845 38.23 35.612 79.758 40.732 123.677 5.234 43.804 1.593 87.495-10.695 129.706C941.966 475.25 922.51 512.91 896 546.475c-26.396 33.564-58.482 61.212-95.346 82.261-38.23 21.845-79.758 35.612-123.562 40.732-30.607 3.641-62.01 2.504-93.526-3.3L265.785 966.202c-21.39 23.097-50.176 35.043-79.872 35.043z m-33.11-61.895c25.828 15.474 55.865 11.947 74.98-9.102l1.365-1.365 328.477-310.045c6.371-6.03 15.246-8.42 23.78-6.485 30.264 6.94 60.415 8.647 89.543 5.234 151.21-17.977 259.64-155.534 241.664-306.631-8.648-72.932-45.398-138.24-103.424-184.093-58.027-45.738-130.162-66.218-203.094-57.571-151.21 17.977-259.527 155.534-241.664 306.63 3.527 29.128 12.288 58.027 26.055 85.903 4.438 8.988 3.3 19.797-2.844 27.762L112.64 840.363c-6.94 10.695-9.785 24.007-8.192 37.546 1.593 13.312 7.737 26.17 17.75 37.206l30.606 24.234z" fill="#d81e06" p-id="11049"></path><path d="M310.84 914.887c-6.03 0-11.946-2.048-16.952-6.144l-160.427-135.85c-11.036-9.33-12.401-25.828-3.072-36.865s25.828-12.401 36.864-3.072L327.68 868.807c11.036 9.33 12.402 25.828 3.072 36.864a26.161 26.161 0 0 1-19.911 9.216z m279.78-247.239c-5.575 0-11.264-1.82-16.042-5.461L353.963 490.496c-11.378-8.875-13.426-25.259-4.551-36.75 8.874-11.378 25.258-13.426 36.75-4.551l220.615 171.577c11.378 8.874 13.426 25.258 4.551 36.75-5.234 6.599-12.97 10.126-20.708 10.126z" fill="#d81e06" p-id="11050"></path></svg>